<svg width="62" height="62" viewBox="0 0 62 62" fill="none" xmlns="http://www.w3.org/2000/svg">
<circle cx="31" cy="31" r="31" fill="black" fill-opacity="0.26"/>
<path fill-rule="evenodd" clip-rule="evenodd" d="M41.1053 20.0322C40.9014 20.1068 25.4833 25.8833 20.5053 27.7503C18.2735 28.5873 16.3914 29.3078 16.3229 29.3514C16.1561 29.4575 16.0002 29.7144 16 29.8836C15.9997 30.0921 16.1241 30.3372 16.2863 30.4479C16.3663 30.5025 17.7696 31.031 19.4048 31.6223C21.04 32.2136 22.4025 32.722 22.4327 32.7522C22.4629 32.7823 22.9971 34.4064 23.6197 36.3612C24.2424 38.3161 24.7876 39.9904 24.8313 40.0818C24.875 40.1732 24.9812 40.2898 25.0673 40.3408C25.246 40.4467 25.6241 40.4622 25.7887 40.3705C25.8478 40.3375 26.665 39.6996 27.6047 38.9529C29.4965 37.4498 29.6324 37.3683 30.0749 37.4714C30.2559 37.5136 30.8198 37.8869 32.619 39.1555C36.6093 41.969 36.6126 41.9712 36.8227 41.9961C37.0609 42.0243 37.3285 41.8982 37.4712 41.6905C37.5404 41.5898 37.6704 41.0923 37.8647 40.1848C38.0243 39.4394 38.4532 37.43 38.8179 35.7195C39.1826 34.009 39.5373 32.354 39.6061 32.0417C39.6749 31.7295 40.0298 30.0745 40.3948 28.364C40.7597 26.6535 41.1733 24.7208 41.3139 24.0692C41.9012 21.3464 42.025 20.7089 41.9961 20.5569C41.9241 20.178 41.4577 19.9033 41.1053 20.0322ZM36.3894 24.6641C36.4438 24.7801 36.4304 24.8073 36.2231 25.0027C36.0992 25.1197 33.9053 27.1029 31.3477 29.4099C28.7901 31.7169 26.62 33.6904 26.5252 33.7954C26.2026 34.1528 26.1304 34.3995 25.9295 35.8299C25.8273 36.5576 25.7122 37.201 25.6733 37.2621C25.6001 37.3771 25.3896 37.4112 25.2569 37.3295C25.2192 37.3063 24.8896 36.2792 24.5245 35.0471C24.032 33.3849 23.8607 32.7369 23.8609 32.5354C23.8612 32.2366 23.9826 31.9526 24.2008 31.7408C24.2726 31.671 26.5562 30.2831 29.2752 28.6566C31.9943 27.0302 34.6536 25.4384 35.1847 25.1194C35.7157 24.8004 36.1908 24.5391 36.2403 24.5388C36.2898 24.5385 36.3569 24.5949 36.3894 24.6641Z" fill="white"/>
</svg>
